<mxfile host="Electron" agent="Mozilla/5.0 (Windows NT 10.0; Win64; x64) AppleWebKit/537.36 (KHTML, like Gecko) draw.io/27.0.9 Chrome/134.0.6998.205 Electron/35.4.0 Safari/537.36" version="27.0.9">
  <diagram name="第 1 页" id="rhHGJBCPvCly51_XB5n-">
    <mxGraphModel dx="2583" dy="1501" grid="1" gridSize="10" guides="1" tooltips="1" connect="1" arrows="1" fold="1" page="1" pageScale="1" pageWidth="1169" pageHeight="1654" math="0" shadow="0">
      <root>
        <mxCell id="0" />
        <mxCell id="1" parent="0" />
        <mxCell id="hjAu2-L6ZlnHu83Mgqnt-95" value="" style="rounded=0;whiteSpace=wrap;html=1;fillColor=#f5f5f5;fontColor=#333333;strokeColor=none;" vertex="1" parent="1">
          <mxGeometry x="1130" y="440" width="670" height="330" as="geometry" />
        </mxCell>
        <mxCell id="hjAu2-L6ZlnHu83Mgqnt-155" value="" style="rounded=0;whiteSpace=wrap;html=1;strokeWidth=2;dashed=1;" vertex="1" parent="1">
          <mxGeometry x="1140" y="574.8" width="300" height="180" as="geometry" />
        </mxCell>
        <mxCell id="hjAu2-L6ZlnHu83Mgqnt-123" value="" style="rounded=0;whiteSpace=wrap;html=1;strokeWidth=2;dashed=1;" vertex="1" parent="1">
          <mxGeometry x="1140" y="450" width="640" height="110" as="geometry" />
        </mxCell>
        <mxCell id="hjAu2-L6ZlnHu83Mgqnt-47" value="&lt;h2&gt;&lt;font style=&quot;font-size: 18px;&quot;&gt;2、演进(了解)&lt;/font&gt;&lt;/h2&gt;" style="rounded=1;whiteSpace=wrap;html=1;fillColor=#d5e8d4;strokeColor=#82b366;fontStyle=1" vertex="1" parent="1">
          <mxGeometry x="276.3399999999999" y="316.75" width="147.33" height="40" as="geometry" />
        </mxCell>
        <mxCell id="hjAu2-L6ZlnHu83Mgqnt-49" value="&lt;span style=&quot;font-size: 16px;&quot;&gt;&lt;b&gt;GICv1&lt;/b&gt;：ARM架构的第一代通用中断控制器，&lt;br&gt;&amp;nbsp; &amp;nbsp; &amp;nbsp; &amp;nbsp; &amp;nbsp; &amp;nbsp; &amp;nbsp; 提供基本的中断分发和优先级管理功能，已经废弃&lt;/span&gt;" style="text;html=1;align=left;verticalAlign=middle;whiteSpace=wrap;rounded=0;fillColor=#d5e8d4;strokeColor=#82b366;dashed=1;fontSize=14;" vertex="1" parent="1">
          <mxGeometry x="451" y="220" width="530" height="40" as="geometry" />
        </mxCell>
        <mxCell id="hjAu2-L6ZlnHu83Mgqnt-55" value="&lt;h2&gt;&lt;font style=&quot;font-size: 18px;&quot;&gt;3、GICv3架构&lt;/font&gt;&lt;/h2&gt;" style="rounded=1;whiteSpace=wrap;html=1;fillColor=#fff2cc;strokeColor=#d6b656;fontStyle=1" vertex="1" parent="1">
          <mxGeometry x="275.3299999999999" y="600" width="147.33" height="40" as="geometry" />
        </mxCell>
        <mxCell id="hjAu2-L6ZlnHu83Mgqnt-69" value="" style="shape=curlyBracket;whiteSpace=wrap;html=1;rounded=1;labelPosition=left;verticalLabelPosition=middle;align=right;verticalAlign=middle;fillColor=#d5e8d4;strokeColor=#82b366;strokeWidth=2;" vertex="1" parent="1">
          <mxGeometry x="421.67" y="243.5" width="29" height="186.5" as="geometry" />
        </mxCell>
        <mxCell id="hjAu2-L6ZlnHu83Mgqnt-71" value="&lt;h2&gt;&lt;font style=&quot;font-size: 18px;&quot;&gt;1、概述&lt;/font&gt;&lt;/h2&gt;" style="rounded=1;whiteSpace=wrap;html=1;fillColor=#dae8fc;strokeColor=#6c8ebf;fontStyle=1" vertex="1" parent="1">
          <mxGeometry x="274.3399999999999" y="125" width="147.33" height="40" as="geometry" />
        </mxCell>
        <mxCell id="hjAu2-L6ZlnHu83Mgqnt-74" value="&lt;span style=&quot;font-size: 16px;&quot;&gt;中断子系统框架硬件层中的一个关键组件，&lt;b&gt;用于管理和控制中断&lt;/b&gt;&lt;/span&gt;" style="text;html=1;align=left;verticalAlign=middle;whiteSpace=wrap;rounded=0;fillColor=#dae8fc;strokeColor=#6c8ebf;dashed=1;fontSize=14;" vertex="1" parent="1">
          <mxGeometry x="449.6700000000001" y="100" width="530" height="40" as="geometry" />
        </mxCell>
        <mxCell id="hjAu2-L6ZlnHu83Mgqnt-78" value="" style="shape=curlyBracket;whiteSpace=wrap;html=1;rounded=1;labelPosition=left;verticalLabelPosition=middle;align=right;verticalAlign=middle;fillColor=#fff2cc;strokeColor=#d6b656;strokeWidth=2;" vertex="1" parent="1">
          <mxGeometry x="422.66" y="490" width="29" height="260" as="geometry" />
        </mxCell>
        <mxCell id="hjAu2-L6ZlnHu83Mgqnt-85" value="&lt;h1&gt;&lt;span style=&quot;font-size: 20px;&quot;&gt;GIC中断控制器&lt;/span&gt;&lt;/h1&gt;" style="ellipse;whiteSpace=wrap;html=1;fillColor=#1ba1e2;strokeColor=#006EAF;fontColor=#ffffff;fontStyle=1" vertex="1" parent="1">
          <mxGeometry x="80" y="644.8" width="165.34" height="70" as="geometry" />
        </mxCell>
        <mxCell id="hjAu2-L6ZlnHu83Mgqnt-87" value="" style="shape=curlyBracket;whiteSpace=wrap;html=1;rounded=1;labelPosition=left;verticalLabelPosition=middle;align=right;verticalAlign=middle;fillColor=#f5f5f5;strokeColor=#666666;strokeWidth=2;fontColor=#333333;" vertex="1" parent="1">
          <mxGeometry x="245.34" y="140" width="29" height="1080" as="geometry" />
        </mxCell>
        <mxCell id="hjAu2-L6ZlnHu83Mgqnt-88" value="&lt;font style=&quot;font-size: 20px;&quot;&gt;🌻Make By Dakkk&lt;/font&gt;" style="html=1;shadow=0;dashed=0;shape=mxgraph.bootstrap.rrect;rSize=5;strokeColor=#1CA5B8;strokeWidth=1;fillColor=none;fontColor=#1CA5B8;whiteSpace=wrap;align=center;verticalAlign=middle;spacingLeft=0;fontStyle=1;fontSize=16;spacing=5;" vertex="1" parent="1">
          <mxGeometry x="293.15999999999997" y="460" width="111.67" height="70.39" as="geometry" />
        </mxCell>
        <mxCell id="hjAu2-L6ZlnHu83Mgqnt-89" value="&lt;font style=&quot;font-size: 20px;&quot;&gt;🌻Make By Dakkk&lt;/font&gt;" style="html=1;shadow=0;dashed=0;shape=mxgraph.bootstrap.rrect;rSize=5;strokeColor=#1CA5B8;strokeWidth=1;fillColor=none;fontColor=#1CA5B8;whiteSpace=wrap;align=center;verticalAlign=middle;spacingLeft=0;fontStyle=1;fontSize=16;spacing=5;" vertex="1" parent="1">
          <mxGeometry x="293.15999999999997" y="760" width="111.67" height="70.39" as="geometry" />
        </mxCell>
        <mxCell id="hjAu2-L6ZlnHu83Mgqnt-90" value="&lt;span style=&quot;font-size: 16px;&quot;&gt;&lt;b&gt;接收&lt;/b&gt;各种中断源的中断请求，然后&lt;b&gt;分发&lt;/b&gt;给适当的处理器或中断服务例程&lt;/span&gt;" style="text;html=1;align=left;verticalAlign=middle;whiteSpace=wrap;rounded=0;fillColor=#dae8fc;strokeColor=#6c8ebf;dashed=1;fontSize=14;" vertex="1" parent="1">
          <mxGeometry x="450.00000000000006" y="150" width="530" height="40" as="geometry" />
        </mxCell>
        <mxCell id="hjAu2-L6ZlnHu83Mgqnt-91" value="" style="shape=curlyBracket;whiteSpace=wrap;html=1;rounded=1;labelPosition=left;verticalLabelPosition=middle;align=right;verticalAlign=middle;fillColor=#dae8fc;strokeColor=#6c8ebf;strokeWidth=2;" vertex="1" parent="1">
          <mxGeometry x="420.67" y="120" width="29" height="50" as="geometry" />
        </mxCell>
        <mxCell id="hjAu2-L6ZlnHu83Mgqnt-92" value="&lt;span style=&quot;font-size: 16px;&quot;&gt;&lt;b&gt;GICv2&lt;/b&gt;：在GICv1基础上增加了虚拟化扩展支持&lt;br&gt;&amp;nbsp; &amp;nbsp; &amp;nbsp; &amp;nbsp; &amp;nbsp; &amp;nbsp; &amp;nbsp; 允许hypervisor管理虚拟机的中断&lt;/span&gt;" style="text;html=1;align=left;verticalAlign=middle;whiteSpace=wrap;rounded=0;fillColor=#d5e8d4;strokeColor=#82b366;dashed=1;fontSize=14;" vertex="1" parent="1">
          <mxGeometry x="450.67" y="270" width="530" height="40" as="geometry" />
        </mxCell>
        <mxCell id="hjAu2-L6ZlnHu83Mgqnt-93" value="&lt;span style=&quot;font-size: 16px;&quot;&gt;&lt;b&gt;GICv3&lt;/b&gt;：重新设计的架构，支持更多处理器核心，&lt;br&gt;&amp;nbsp; &amp;nbsp; &amp;nbsp; &amp;nbsp; &amp;nbsp; &amp;nbsp; &amp;nbsp; 使用System Register接口替代内存映射&lt;br&gt;&amp;nbsp; &amp;nbsp; &amp;nbsp; &amp;nbsp; &amp;nbsp; &amp;nbsp; &amp;nbsp; 并引入了LPI（Locality-specific Peripheral Interrupt）&lt;/span&gt;" style="text;html=1;align=left;verticalAlign=middle;whiteSpace=wrap;rounded=0;fillColor=#d5e8d4;strokeColor=#82b366;dashed=1;fontSize=14;" vertex="1" parent="1">
          <mxGeometry x="451" y="320" width="530" height="70" as="geometry" />
        </mxCell>
        <mxCell id="hjAu2-L6ZlnHu83Mgqnt-94" value="&lt;span style=&quot;font-size: 16px;&quot;&gt;&lt;b&gt;GICv4&lt;/b&gt;：在GICv3基础上增强虚拟化功能，支持虚拟LPI的直接注入&lt;br&gt;&amp;nbsp; &amp;nbsp; &amp;nbsp; &amp;nbsp; &amp;nbsp; &amp;nbsp; &amp;nbsp; 减少hypervisor介入提升性能&lt;/span&gt;" style="text;html=1;align=left;verticalAlign=middle;whiteSpace=wrap;rounded=0;fillColor=#d5e8d4;strokeColor=#82b366;dashed=1;fontSize=14;" vertex="1" parent="1">
          <mxGeometry x="450" y="410" width="530" height="40" as="geometry" />
        </mxCell>
        <mxCell id="hjAu2-L6ZlnHu83Mgqnt-96" value="&lt;span style=&quot;font-size: 16px;&quot;&gt;&lt;b&gt;Redistributor&lt;/b&gt;&lt;/span&gt;" style="rounded=1;whiteSpace=wrap;html=1;fillColor=#dae8fc;strokeColor=#6c8ebf;" vertex="1" parent="1">
          <mxGeometry x="1150" y="510" width="130" height="40" as="geometry" />
        </mxCell>
        <mxCell id="hjAu2-L6ZlnHu83Mgqnt-101" value="&lt;font style=&quot;font-size: 16px;&quot;&gt;&lt;b style=&quot;&quot;&gt;Distributor&lt;/b&gt;&lt;/font&gt;" style="rounded=1;whiteSpace=wrap;html=1;fillColor=#fff2cc;strokeColor=#d6b656;" vertex="1" parent="1">
          <mxGeometry x="1150" y="460" width="620" height="40" as="geometry" />
        </mxCell>
        <mxCell id="hjAu2-L6ZlnHu83Mgqnt-130" style="edgeStyle=orthogonalEdgeStyle;rounded=0;orthogonalLoop=1;jettySize=auto;html=1;entryX=0.5;entryY=0;entryDx=0;entryDy=0;" edge="1" parent="1">
          <mxGeometry relative="1" as="geometry">
            <mxPoint x="1170" y="625.1899999999999" as="sourcePoint" />
            <mxPoint x="1170" y="674.8" as="targetPoint" />
            <Array as="points">
              <mxPoint x="1170" y="644.8" />
              <mxPoint x="1170" y="644.8" />
            </Array>
          </mxGeometry>
        </mxCell>
        <mxCell id="hjAu2-L6ZlnHu83Mgqnt-132" value="&lt;b&gt;IRQ&lt;/b&gt;" style="edgeLabel;html=1;align=center;verticalAlign=middle;resizable=0;points=[];" vertex="1" connectable="0" parent="hjAu2-L6ZlnHu83Mgqnt-130">
          <mxGeometry x="-0.1557" y="-1" relative="1" as="geometry">
            <mxPoint as="offset" />
          </mxGeometry>
        </mxCell>
        <mxCell id="hjAu2-L6ZlnHu83Mgqnt-125" value="&lt;span style=&quot;font-size: 16px;&quot;&gt;&lt;b&gt;CPU interface&lt;/b&gt;&lt;/span&gt;" style="rounded=1;whiteSpace=wrap;html=1;fillColor=#f8cecc;strokeColor=#b85450;" vertex="1" parent="1">
          <mxGeometry x="1150" y="585.1899999999999" width="130" height="40" as="geometry" />
        </mxCell>
        <mxCell id="hjAu2-L6ZlnHu83Mgqnt-126" value="&lt;span style=&quot;font-size: 16px;&quot;&gt;&lt;b&gt;Core / PE&lt;/b&gt;&lt;/span&gt;" style="rounded=1;whiteSpace=wrap;html=1;" vertex="1" parent="1">
          <mxGeometry x="1150" y="674.8" width="130" height="40" as="geometry" />
        </mxCell>
        <mxCell id="hjAu2-L6ZlnHu83Mgqnt-131" style="edgeStyle=orthogonalEdgeStyle;rounded=0;orthogonalLoop=1;jettySize=auto;html=1;entryX=0.5;entryY=0;entryDx=0;entryDy=0;" edge="1" parent="1">
          <mxGeometry relative="1" as="geometry">
            <mxPoint x="1260" y="624.8" as="sourcePoint" />
            <mxPoint x="1260" y="674.41" as="targetPoint" />
            <Array as="points">
              <mxPoint x="1260" y="654.41" />
              <mxPoint x="1260" y="654.41" />
            </Array>
          </mxGeometry>
        </mxCell>
        <mxCell id="hjAu2-L6ZlnHu83Mgqnt-133" value="&lt;b&gt;FIQ&lt;/b&gt;" style="edgeLabel;html=1;align=center;verticalAlign=middle;resizable=0;points=[];" vertex="1" connectable="0" parent="hjAu2-L6ZlnHu83Mgqnt-131">
          <mxGeometry x="-0.1288" y="1" relative="1" as="geometry">
            <mxPoint as="offset" />
          </mxGeometry>
        </mxCell>
        <mxCell id="hjAu2-L6ZlnHu83Mgqnt-158" value="&lt;font style=&quot;font-size: 16px;&quot;&gt;&lt;b&gt;Multi-Core Processor&lt;/b&gt;&lt;/font&gt;" style="text;html=1;align=center;verticalAlign=middle;whiteSpace=wrap;rounded=0;" vertex="1" parent="1">
          <mxGeometry x="1205" y="724.8" width="170" height="30" as="geometry" />
        </mxCell>
        <mxCell id="hjAu2-L6ZlnHu83Mgqnt-160" value="&lt;span style=&quot;font-size: 16px;&quot;&gt;&lt;b&gt;Distributor：&lt;/b&gt;包含所有处理器核心&lt;b&gt;中断的全局设置&lt;/b&gt;，管理所有共享外设中断（SPI）&lt;br&gt;&amp;nbsp; &amp;nbsp; &amp;nbsp; &amp;nbsp; &amp;nbsp; &amp;nbsp; &amp;nbsp; &amp;nbsp; &amp;nbsp; &amp;nbsp; &amp;nbsp; 操作有：全局CPU中断开关、任意中断开关、中断优先级控制&lt;br&gt;&amp;nbsp; &amp;nbsp; &amp;nbsp; &amp;nbsp; &amp;nbsp; &amp;nbsp; &amp;nbsp; &amp;nbsp; &amp;nbsp; &amp;nbsp; &amp;nbsp; &amp;nbsp; &amp;nbsp; &amp;nbsp; &amp;nbsp; &amp;nbsp; &amp;nbsp; &amp;nbsp; &amp;nbsp;指定中断发送的CPU、中断触发方式设置&lt;/span&gt;" style="text;html=1;align=left;verticalAlign=middle;whiteSpace=wrap;rounded=0;fillColor=#fff2cc;strokeColor=#d6b656;dashed=1;fontSize=14;" vertex="1" parent="1">
          <mxGeometry x="451.66" y="475.19" width="618.34" height="74.81" as="geometry" />
        </mxCell>
        <mxCell id="hjAu2-L6ZlnHu83Mgqnt-162" value="&lt;span style=&quot;font-size: 16px;&quot;&gt;&lt;b&gt;Redistributor&lt;/b&gt;&lt;/span&gt;&lt;b style=&quot;font-size: 16px;&quot;&gt;：&lt;/b&gt;&lt;span style=&quot;font-size: 16px;&quot;&gt;每个CPU/PE都有一个，&lt;b&gt;CPU专属的&lt;/b&gt;&lt;/span&gt;&lt;br&gt;&lt;span style=&quot;font-size: 16px;&quot;&gt;&amp;nbsp; &amp;nbsp; &amp;nbsp; &amp;nbsp; &amp;nbsp; &amp;nbsp; &amp;nbsp; &amp;nbsp; &amp;nbsp; &amp;nbsp; &amp;nbsp; &amp;nbsp; &amp;nbsp; 操作有：SGI和PPI的开关、设置SGI和PPI优先级、控制SGI和PPI状态&lt;br&gt;&amp;nbsp; &amp;nbsp; &amp;nbsp; &amp;nbsp; &amp;nbsp; &amp;nbsp; &amp;nbsp; &amp;nbsp; &amp;nbsp; &amp;nbsp; &amp;nbsp; &amp;nbsp; &amp;nbsp; &amp;nbsp; &amp;nbsp; &amp;nbsp; &amp;nbsp; &amp;nbsp; &amp;nbsp; &amp;nbsp; 分配SGI和PPI的中断组、CPU电源管理支持等&lt;/span&gt;" style="text;html=1;align=left;verticalAlign=middle;whiteSpace=wrap;rounded=0;fillColor=#fff2cc;strokeColor=#d6b656;dashed=1;fontSize=14;" vertex="1" parent="1">
          <mxGeometry x="451.66" y="560" width="618.34" height="74.81" as="geometry" />
        </mxCell>
        <mxCell id="hjAu2-L6ZlnHu83Mgqnt-163" value="&lt;span style=&quot;font-size: 16px;&quot;&gt;&lt;b&gt;CPU接口&lt;/b&gt;&lt;/span&gt;&lt;b style=&quot;font-size: 16px;&quot;&gt;：&lt;/b&gt;&lt;span style=&quot;font-size: 16px;&quot;&gt;中断接收窗口&lt;/span&gt;&lt;br&gt;&lt;span style=&quot;font-size: 16px;&quot;&gt;&amp;nbsp; &amp;nbsp; &amp;nbsp; &amp;nbsp; &amp;nbsp; &amp;nbsp; &amp;nbsp; &amp;nbsp; &amp;nbsp; &amp;nbsp;操作有：CPU接口的开关、中断确认、中断完毕通知等&lt;/span&gt;" style="text;html=1;align=left;verticalAlign=middle;whiteSpace=wrap;rounded=0;fillColor=#fff2cc;strokeColor=#d6b656;dashed=1;fontSize=14;" vertex="1" parent="1">
          <mxGeometry x="451.66" y="650" width="618.34" height="50" as="geometry" />
        </mxCell>
        <mxCell id="hjAu2-L6ZlnHu83Mgqnt-164" value="&lt;span style=&quot;font-size: 16px;&quot;&gt;&lt;b&gt;ITS&lt;/b&gt;&lt;/span&gt;&lt;b style=&quot;font-size: 16px;&quot;&gt;：&lt;/b&gt;&lt;span style=&quot;font-size: 16px;&quot;&gt;可选的硬件机制，提供一种基于消息的中断转换为LPI的软件机制&lt;/span&gt;&lt;br&gt;&lt;span style=&quot;font-size: 16px;&quot;&gt;&amp;nbsp; &amp;nbsp; &amp;nbsp; &amp;nbsp; &amp;nbsp;&lt;b&gt;ITS接收LPI中断&lt;/b&gt;，进行解析，发送给redistributor，由redistributor处理&lt;/span&gt;" style="text;html=1;align=left;verticalAlign=middle;whiteSpace=wrap;rounded=0;fillColor=#fff2cc;strokeColor=#d6b656;dashed=1;fontSize=14;" vertex="1" parent="1">
          <mxGeometry x="451.66" y="720" width="618.34" height="50" as="geometry" />
        </mxCell>
        <mxCell id="hjAu2-L6ZlnHu83Mgqnt-165" value="&lt;span style=&quot;font-size: 16px;&quot;&gt;&lt;b&gt;Redistributor&lt;/b&gt;&lt;/span&gt;" style="rounded=1;whiteSpace=wrap;html=1;fillColor=#dae8fc;strokeColor=#6c8ebf;" vertex="1" parent="1">
          <mxGeometry x="1300" y="510" width="130" height="40" as="geometry" />
        </mxCell>
        <mxCell id="hjAu2-L6ZlnHu83Mgqnt-166" style="edgeStyle=orthogonalEdgeStyle;rounded=0;orthogonalLoop=1;jettySize=auto;html=1;entryX=0.5;entryY=0;entryDx=0;entryDy=0;" edge="1" parent="1">
          <mxGeometry relative="1" as="geometry">
            <mxPoint x="1320" y="625.1899999999999" as="sourcePoint" />
            <mxPoint x="1320" y="674.8" as="targetPoint" />
            <Array as="points">
              <mxPoint x="1320" y="644.8" />
              <mxPoint x="1320" y="644.8" />
            </Array>
          </mxGeometry>
        </mxCell>
        <mxCell id="hjAu2-L6ZlnHu83Mgqnt-167" value="&lt;b&gt;IRQ&lt;/b&gt;" style="edgeLabel;html=1;align=center;verticalAlign=middle;resizable=0;points=[];" vertex="1" connectable="0" parent="hjAu2-L6ZlnHu83Mgqnt-166">
          <mxGeometry x="-0.1557" y="-1" relative="1" as="geometry">
            <mxPoint as="offset" />
          </mxGeometry>
        </mxCell>
        <mxCell id="hjAu2-L6ZlnHu83Mgqnt-168" value="&lt;span style=&quot;font-size: 16px;&quot;&gt;&lt;b&gt;CPU interface&lt;/b&gt;&lt;/span&gt;" style="rounded=1;whiteSpace=wrap;html=1;fillColor=#f8cecc;strokeColor=#b85450;" vertex="1" parent="1">
          <mxGeometry x="1300" y="585.1899999999999" width="130" height="40" as="geometry" />
        </mxCell>
        <mxCell id="hjAu2-L6ZlnHu83Mgqnt-169" value="&lt;span style=&quot;font-size: 16px;&quot;&gt;&lt;b&gt;Core / PE&lt;/b&gt;&lt;/span&gt;" style="rounded=1;whiteSpace=wrap;html=1;" vertex="1" parent="1">
          <mxGeometry x="1300" y="674.8" width="130" height="40" as="geometry" />
        </mxCell>
        <mxCell id="hjAu2-L6ZlnHu83Mgqnt-170" style="edgeStyle=orthogonalEdgeStyle;rounded=0;orthogonalLoop=1;jettySize=auto;html=1;entryX=0.5;entryY=0;entryDx=0;entryDy=0;" edge="1" parent="1">
          <mxGeometry relative="1" as="geometry">
            <mxPoint x="1410" y="624.8" as="sourcePoint" />
            <mxPoint x="1410" y="674.41" as="targetPoint" />
            <Array as="points">
              <mxPoint x="1410" y="654.41" />
              <mxPoint x="1410" y="654.41" />
            </Array>
          </mxGeometry>
        </mxCell>
        <mxCell id="hjAu2-L6ZlnHu83Mgqnt-171" value="&lt;b&gt;FIQ&lt;/b&gt;" style="edgeLabel;html=1;align=center;verticalAlign=middle;resizable=0;points=[];" vertex="1" connectable="0" parent="hjAu2-L6ZlnHu83Mgqnt-170">
          <mxGeometry x="-0.1288" y="1" relative="1" as="geometry">
            <mxPoint as="offset" />
          </mxGeometry>
        </mxCell>
        <mxCell id="hjAu2-L6ZlnHu83Mgqnt-172" value="" style="rounded=0;whiteSpace=wrap;html=1;strokeWidth=2;dashed=1;" vertex="1" parent="1">
          <mxGeometry x="1480" y="575.1899999999999" width="300" height="180" as="geometry" />
        </mxCell>
        <mxCell id="hjAu2-L6ZlnHu83Mgqnt-173" value="&lt;span style=&quot;font-size: 16px;&quot;&gt;&lt;b&gt;Redistributor&lt;/b&gt;&lt;/span&gt;" style="rounded=1;whiteSpace=wrap;html=1;fillColor=#dae8fc;strokeColor=#6c8ebf;" vertex="1" parent="1">
          <mxGeometry x="1490" y="510.39" width="130" height="40" as="geometry" />
        </mxCell>
        <mxCell id="hjAu2-L6ZlnHu83Mgqnt-174" style="edgeStyle=orthogonalEdgeStyle;rounded=0;orthogonalLoop=1;jettySize=auto;html=1;entryX=0.5;entryY=0;entryDx=0;entryDy=0;" edge="1" parent="1">
          <mxGeometry relative="1" as="geometry">
            <mxPoint x="1510" y="625.5799999999999" as="sourcePoint" />
            <mxPoint x="1510" y="675.1899999999999" as="targetPoint" />
            <Array as="points">
              <mxPoint x="1510" y="645.1899999999999" />
              <mxPoint x="1510" y="645.1899999999999" />
            </Array>
          </mxGeometry>
        </mxCell>
        <mxCell id="hjAu2-L6ZlnHu83Mgqnt-175" value="&lt;b&gt;IRQ&lt;/b&gt;" style="edgeLabel;html=1;align=center;verticalAlign=middle;resizable=0;points=[];" vertex="1" connectable="0" parent="hjAu2-L6ZlnHu83Mgqnt-174">
          <mxGeometry x="-0.1557" y="-1" relative="1" as="geometry">
            <mxPoint as="offset" />
          </mxGeometry>
        </mxCell>
        <mxCell id="hjAu2-L6ZlnHu83Mgqnt-176" value="&lt;span style=&quot;font-size: 16px;&quot;&gt;&lt;b&gt;CPU interface&lt;/b&gt;&lt;/span&gt;" style="rounded=1;whiteSpace=wrap;html=1;fillColor=#f8cecc;strokeColor=#b85450;" vertex="1" parent="1">
          <mxGeometry x="1490" y="585.5799999999999" width="130" height="40" as="geometry" />
        </mxCell>
        <mxCell id="hjAu2-L6ZlnHu83Mgqnt-177" value="&lt;span style=&quot;font-size: 16px;&quot;&gt;&lt;b&gt;Core / PE&lt;/b&gt;&lt;/span&gt;" style="rounded=1;whiteSpace=wrap;html=1;" vertex="1" parent="1">
          <mxGeometry x="1490" y="675.1899999999999" width="130" height="40" as="geometry" />
        </mxCell>
        <mxCell id="hjAu2-L6ZlnHu83Mgqnt-178" style="edgeStyle=orthogonalEdgeStyle;rounded=0;orthogonalLoop=1;jettySize=auto;html=1;entryX=0.5;entryY=0;entryDx=0;entryDy=0;" edge="1" parent="1">
          <mxGeometry relative="1" as="geometry">
            <mxPoint x="1600" y="625.1899999999999" as="sourcePoint" />
            <mxPoint x="1600" y="674.8" as="targetPoint" />
            <Array as="points">
              <mxPoint x="1600" y="654.8" />
              <mxPoint x="1600" y="654.8" />
            </Array>
          </mxGeometry>
        </mxCell>
        <mxCell id="hjAu2-L6ZlnHu83Mgqnt-179" value="&lt;b&gt;FIQ&lt;/b&gt;" style="edgeLabel;html=1;align=center;verticalAlign=middle;resizable=0;points=[];" vertex="1" connectable="0" parent="hjAu2-L6ZlnHu83Mgqnt-178">
          <mxGeometry x="-0.1288" y="1" relative="1" as="geometry">
            <mxPoint as="offset" />
          </mxGeometry>
        </mxCell>
        <mxCell id="hjAu2-L6ZlnHu83Mgqnt-180" value="&lt;font style=&quot;font-size: 16px;&quot;&gt;&lt;b&gt;Multi-Core Processor&lt;/b&gt;&lt;/font&gt;" style="text;html=1;align=center;verticalAlign=middle;whiteSpace=wrap;rounded=0;" vertex="1" parent="1">
          <mxGeometry x="1545" y="725.1899999999999" width="170" height="30" as="geometry" />
        </mxCell>
        <mxCell id="hjAu2-L6ZlnHu83Mgqnt-181" value="&lt;span style=&quot;font-size: 16px;&quot;&gt;&lt;b&gt;Redistributor&lt;/b&gt;&lt;/span&gt;" style="rounded=1;whiteSpace=wrap;html=1;fillColor=#dae8fc;strokeColor=#6c8ebf;" vertex="1" parent="1">
          <mxGeometry x="1640" y="510.39" width="130" height="40" as="geometry" />
        </mxCell>
        <mxCell id="hjAu2-L6ZlnHu83Mgqnt-182" style="edgeStyle=orthogonalEdgeStyle;rounded=0;orthogonalLoop=1;jettySize=auto;html=1;entryX=0.5;entryY=0;entryDx=0;entryDy=0;" edge="1" parent="1">
          <mxGeometry relative="1" as="geometry">
            <mxPoint x="1660" y="625.5799999999999" as="sourcePoint" />
            <mxPoint x="1660" y="675.1899999999999" as="targetPoint" />
            <Array as="points">
              <mxPoint x="1660" y="645.1899999999999" />
              <mxPoint x="1660" y="645.1899999999999" />
            </Array>
          </mxGeometry>
        </mxCell>
        <mxCell id="hjAu2-L6ZlnHu83Mgqnt-183" value="&lt;b&gt;IRQ&lt;/b&gt;" style="edgeLabel;html=1;align=center;verticalAlign=middle;resizable=0;points=[];" vertex="1" connectable="0" parent="hjAu2-L6ZlnHu83Mgqnt-182">
          <mxGeometry x="-0.1557" y="-1" relative="1" as="geometry">
            <mxPoint as="offset" />
          </mxGeometry>
        </mxCell>
        <mxCell id="hjAu2-L6ZlnHu83Mgqnt-184" value="&lt;span style=&quot;font-size: 16px;&quot;&gt;&lt;b&gt;CPU interface&lt;/b&gt;&lt;/span&gt;" style="rounded=1;whiteSpace=wrap;html=1;fillColor=#f8cecc;strokeColor=#b85450;" vertex="1" parent="1">
          <mxGeometry x="1640" y="585.5799999999999" width="130" height="40" as="geometry" />
        </mxCell>
        <mxCell id="hjAu2-L6ZlnHu83Mgqnt-185" value="&lt;span style=&quot;font-size: 16px;&quot;&gt;&lt;b&gt;Core / PE&lt;/b&gt;&lt;/span&gt;" style="rounded=1;whiteSpace=wrap;html=1;" vertex="1" parent="1">
          <mxGeometry x="1640" y="675.1899999999999" width="130" height="40" as="geometry" />
        </mxCell>
        <mxCell id="hjAu2-L6ZlnHu83Mgqnt-186" style="edgeStyle=orthogonalEdgeStyle;rounded=0;orthogonalLoop=1;jettySize=auto;html=1;entryX=0.5;entryY=0;entryDx=0;entryDy=0;" edge="1" parent="1">
          <mxGeometry relative="1" as="geometry">
            <mxPoint x="1750" y="625.1899999999999" as="sourcePoint" />
            <mxPoint x="1750" y="674.8" as="targetPoint" />
            <Array as="points">
              <mxPoint x="1750" y="654.8" />
              <mxPoint x="1750" y="654.8" />
            </Array>
          </mxGeometry>
        </mxCell>
        <mxCell id="hjAu2-L6ZlnHu83Mgqnt-187" value="&lt;b&gt;FIQ&lt;/b&gt;" style="edgeLabel;html=1;align=center;verticalAlign=middle;resizable=0;points=[];" vertex="1" connectable="0" parent="hjAu2-L6ZlnHu83Mgqnt-186">
          <mxGeometry x="-0.1288" y="1" relative="1" as="geometry">
            <mxPoint as="offset" />
          </mxGeometry>
        </mxCell>
        <mxCell id="hjAu2-L6ZlnHu83Mgqnt-195" value="&lt;h2&gt;&lt;font style=&quot;font-size: 18px;&quot;&gt;4、GICv3&lt;br&gt;&amp;nbsp; &amp;nbsp; &amp;nbsp; &amp;nbsp; &amp;nbsp; 中断类型&lt;/font&gt;&lt;/h2&gt;" style="rounded=1;whiteSpace=wrap;html=1;fillColor=#f8cecc;strokeColor=#b85450;fontStyle=1" vertex="1" parent="1">
          <mxGeometry x="275.3299999999999" y="917.6" width="147.33" height="40" as="geometry" />
        </mxCell>
        <mxCell id="hjAu2-L6ZlnHu83Mgqnt-196" value="" style="shape=curlyBracket;whiteSpace=wrap;html=1;rounded=1;labelPosition=left;verticalLabelPosition=middle;align=right;verticalAlign=middle;fillColor=#f8cecc;strokeColor=#b85450;strokeWidth=2;" vertex="1" parent="1">
          <mxGeometry x="422.66" y="805.19" width="29" height="264.81" as="geometry" />
        </mxCell>
        <mxCell id="hjAu2-L6ZlnHu83Mgqnt-198" value="&lt;span style=&quot;font-size: 16px;&quot;&gt;&lt;b&gt;SGI：&lt;/b&gt;Software Generated Interrupt，软件生成中断&lt;br&gt;&amp;nbsp; &amp;nbsp; &amp;nbsp; &amp;nbsp; &amp;nbsp; 用于处理器之间的通信，由软件触发，&lt;b&gt;中断号 0~15&lt;/b&gt;&lt;/span&gt;" style="text;html=1;align=left;verticalAlign=middle;whiteSpace=wrap;rounded=0;fillColor=#f8cecc;strokeColor=#b85450;dashed=1;fontSize=14;" vertex="1" parent="1">
          <mxGeometry x="451.66" y="790.38" width="618.34" height="74.81" as="geometry" />
        </mxCell>
        <mxCell id="hjAu2-L6ZlnHu83Mgqnt-199" value="&lt;span style=&quot;font-size: 16px;&quot;&gt;&lt;b&gt;PPI&lt;/b&gt;&lt;/span&gt;&lt;b style=&quot;font-size: 16px;&quot;&gt;：&lt;/b&gt;&lt;span style=&quot;font-size: 16px;&quot;&gt;Private Peripheral Interrupt，私有外设中断&lt;br&gt;&amp;nbsp; &amp;nbsp; &amp;nbsp; &amp;nbsp; &amp;nbsp;针对特定处理器核心的外设中断，每个核心有自己独有的中断（定时器）&lt;br&gt;&amp;nbsp; &amp;nbsp; &amp;nbsp; &amp;nbsp; &amp;nbsp;&lt;b&gt;中断号 16~31&lt;/b&gt;&lt;/span&gt;" style="text;html=1;align=left;verticalAlign=middle;whiteSpace=wrap;rounded=0;fillColor=#f8cecc;strokeColor=#b85450;dashed=1;fontSize=14;" vertex="1" parent="1">
          <mxGeometry x="451.66" y="875.19" width="618.34" height="74.81" as="geometry" />
        </mxCell>
        <mxCell id="hjAu2-L6ZlnHu83Mgqnt-200" value="&lt;font&gt;&lt;span style=&quot;font-weight: bold; color: rgb(255, 0, 0); font-size: 16px;&quot;&gt;SPI&lt;/span&gt;&lt;span style=&quot;font-weight: bold; color: rgb(255, 0, 0); font-size: 16px;&quot;&gt;：&lt;/span&gt;&lt;span style=&quot;font-size: 16px;&quot;&gt;&lt;font style=&quot;font-weight: bold;&quot; color=&quot;#ff0000&quot;&gt;Shared Peripheral Interrupt，共享外设中断&lt;/font&gt;&lt;br&gt;&lt;font style=&quot;font-weight: bold;&quot; color=&quot;#ff0000&quot;&gt;&amp;nbsp; &amp;nbsp; &amp;nbsp; &amp;nbsp; &amp;nbsp;&lt;/font&gt;&lt;font style=&quot;color: rgb(0, 0, 0);&quot;&gt;是全局外设中断，可以路由到指定的处理器核心，所有核心共享的中断&lt;br&gt;&amp;nbsp; &amp;nbsp; &amp;nbsp; &amp;nbsp; &amp;nbsp;&lt;b&gt;中断号 32~1019&lt;/b&gt;&lt;/font&gt;&lt;/span&gt;&lt;/font&gt;" style="text;html=1;align=left;verticalAlign=middle;whiteSpace=wrap;rounded=0;fillColor=#f8cecc;strokeColor=#b85450;dashed=1;fontSize=14;" vertex="1" parent="1">
          <mxGeometry x="451.66" y="965.19" width="618.34" height="64.81" as="geometry" />
        </mxCell>
        <mxCell id="hjAu2-L6ZlnHu83Mgqnt-201" value="&lt;span style=&quot;font-size: 16px;&quot;&gt;&lt;b&gt;LPI&lt;/b&gt;&lt;/span&gt;&lt;b style=&quot;font-size: 16px;&quot;&gt;：&lt;/b&gt;&lt;span style=&quot;font-size: 16px;&quot;&gt;Locality-specific Peripheral Interrupt，特定局部外设中断&lt;/span&gt;&lt;br&gt;&lt;span style=&quot;font-size: 16px;&quot;&gt;&amp;nbsp; &amp;nbsp; &amp;nbsp; &amp;nbsp; &amp;nbsp;&lt;b&gt;GICv3引入，配置存储在内存表，基于消息的中断&lt;/b&gt;&lt;/span&gt;" style="text;html=1;align=left;verticalAlign=middle;whiteSpace=wrap;rounded=0;fillColor=#f8cecc;strokeColor=#b85450;dashed=1;fontSize=14;" vertex="1" parent="1">
          <mxGeometry x="451.66" y="1050" width="618.34" height="50" as="geometry" />
        </mxCell>
        <mxCell id="hjAu2-L6ZlnHu83Mgqnt-202" value="" style="shape=table;startSize=0;container=1;collapsible=0;childLayout=tableLayout;fixedRows=1;rowLines=0;fontStyle=0;strokeColor=#b85450;fontSize=14;fillColor=none;" vertex="1" parent="1">
          <mxGeometry x="1144" y="829.38" width="610" height="124" as="geometry" />
        </mxCell>
        <mxCell id="hjAu2-L6ZlnHu83Mgqnt-203" value="" style="shape=tableRow;horizontal=0;startSize=0;swimlaneHead=0;swimlaneBody=0;top=0;left=0;bottom=0;right=0;collapsible=0;dropTarget=0;fillColor=none;points=[[0,0.5],[1,0.5]];portConstraint=eastwest;strokeColor=inherit;fontSize=14;" vertex="1" parent="hjAu2-L6ZlnHu83Mgqnt-202">
          <mxGeometry width="610" height="31" as="geometry" />
        </mxCell>
        <mxCell id="hjAu2-L6ZlnHu83Mgqnt-204" value="&lt;font style=&quot;font-size: 16px;&quot;&gt;手册定位&lt;/font&gt;" style="shape=partialRectangle;html=1;whiteSpace=wrap;connectable=0;fillColor=none;top=0;left=0;bottom=0;right=0;overflow=hidden;pointerEvents=1;strokeColor=inherit;fontSize=14;" vertex="1" parent="hjAu2-L6ZlnHu83Mgqnt-203">
          <mxGeometry width="96" height="31" as="geometry">
            <mxRectangle width="96" height="31" as="alternateBounds" />
          </mxGeometry>
        </mxCell>
        <mxCell id="hjAu2-L6ZlnHu83Mgqnt-205" value="&lt;font style=&quot;font-size: 16px;&quot;&gt;1.3 System Interrupt Connection 小节中&lt;/font&gt;" style="shape=partialRectangle;html=1;whiteSpace=wrap;connectable=0;fillColor=none;top=0;left=0;bottom=0;right=0;align=left;spacingLeft=6;overflow=hidden;strokeColor=inherit;fontSize=14;" vertex="1" parent="hjAu2-L6ZlnHu83Mgqnt-203">
          <mxGeometry x="96" width="514" height="31" as="geometry">
            <mxRectangle width="514" height="31" as="alternateBounds" />
          </mxGeometry>
        </mxCell>
        <mxCell id="hjAu2-L6ZlnHu83Mgqnt-222" value="" style="shape=tableRow;horizontal=0;startSize=0;swimlaneHead=0;swimlaneBody=0;top=0;left=0;bottom=0;right=0;collapsible=0;dropTarget=0;fillColor=none;points=[[0,0.5],[1,0.5]];portConstraint=eastwest;strokeColor=inherit;fontSize=14;" vertex="1" parent="hjAu2-L6ZlnHu83Mgqnt-202">
          <mxGeometry y="31" width="610" height="31" as="geometry" />
        </mxCell>
        <mxCell id="hjAu2-L6ZlnHu83Mgqnt-223" value="&lt;font style=&quot;font-size: 16px;&quot;&gt;架构规定&lt;/font&gt;" style="shape=partialRectangle;html=1;whiteSpace=wrap;connectable=0;fillColor=none;top=0;left=0;bottom=0;right=0;overflow=hidden;pointerEvents=1;strokeColor=inherit;fontSize=14;" vertex="1" parent="hjAu2-L6ZlnHu83Mgqnt-222">
          <mxGeometry width="96" height="31" as="geometry">
            <mxRectangle width="96" height="31" as="alternateBounds" />
          </mxGeometry>
        </mxCell>
        <mxCell id="hjAu2-L6ZlnHu83Mgqnt-224" value="&lt;font style=&quot;font-size: 16px;&quot;&gt;SPI是32~1019，而PPI是16~31&lt;/font&gt;" style="shape=partialRectangle;html=1;whiteSpace=wrap;connectable=0;fillColor=none;top=0;left=0;bottom=0;right=0;align=left;spacingLeft=6;overflow=hidden;strokeColor=inherit;fontSize=14;" vertex="1" parent="hjAu2-L6ZlnHu83Mgqnt-222">
          <mxGeometry x="96" width="514" height="31" as="geometry">
            <mxRectangle width="514" height="31" as="alternateBounds" />
          </mxGeometry>
        </mxCell>
        <mxCell id="hjAu2-L6ZlnHu83Mgqnt-225" value="" style="shape=tableRow;horizontal=0;startSize=0;swimlaneHead=0;swimlaneBody=0;top=0;left=0;bottom=0;right=0;collapsible=0;dropTarget=0;fillColor=none;points=[[0,0.5],[1,0.5]];portConstraint=eastwest;strokeColor=inherit;fontSize=14;" vertex="1" parent="hjAu2-L6ZlnHu83Mgqnt-202">
          <mxGeometry y="62" width="610" height="31" as="geometry" />
        </mxCell>
        <mxCell id="hjAu2-L6ZlnHu83Mgqnt-226" value="&lt;font style=&quot;font-size: 16px;&quot;&gt;实际RK3568&lt;/font&gt;" style="shape=partialRectangle;html=1;whiteSpace=wrap;connectable=0;fillColor=none;top=0;left=0;bottom=0;right=0;overflow=hidden;pointerEvents=1;strokeColor=inherit;fontSize=14;" vertex="1" parent="hjAu2-L6ZlnHu83Mgqnt-225">
          <mxGeometry width="96" height="31" as="geometry">
            <mxRectangle width="96" height="31" as="alternateBounds" />
          </mxGeometry>
        </mxCell>
        <mxCell id="hjAu2-L6ZlnHu83Mgqnt-227" value="&lt;font style=&quot;font-size: 16px;&quot;&gt;&lt;b&gt;SPI是256个（ID=32开始），PPI范围0~31&lt;/b&gt;&lt;/font&gt;" style="shape=partialRectangle;html=1;whiteSpace=wrap;connectable=0;fillColor=none;top=0;left=0;bottom=0;right=0;align=left;spacingLeft=6;overflow=hidden;strokeColor=inherit;fontSize=14;" vertex="1" parent="hjAu2-L6ZlnHu83Mgqnt-225">
          <mxGeometry x="96" width="514" height="31" as="geometry">
            <mxRectangle width="514" height="31" as="alternateBounds" />
          </mxGeometry>
        </mxCell>
        <mxCell id="hjAu2-L6ZlnHu83Mgqnt-228" value="" style="shape=tableRow;horizontal=0;startSize=0;swimlaneHead=0;swimlaneBody=0;top=0;left=0;bottom=0;right=0;collapsible=0;dropTarget=0;fillColor=none;points=[[0,0.5],[1,0.5]];portConstraint=eastwest;strokeColor=inherit;fontSize=14;" vertex="1" parent="hjAu2-L6ZlnHu83Mgqnt-202">
          <mxGeometry y="93" width="610" height="31" as="geometry" />
        </mxCell>
        <mxCell id="hjAu2-L6ZlnHu83Mgqnt-229" value="" style="shape=partialRectangle;html=1;whiteSpace=wrap;connectable=0;fillColor=none;top=0;left=0;bottom=0;right=0;overflow=hidden;pointerEvents=1;strokeColor=inherit;fontSize=14;" vertex="1" parent="hjAu2-L6ZlnHu83Mgqnt-228">
          <mxGeometry width="96" height="31" as="geometry">
            <mxRectangle width="96" height="31" as="alternateBounds" />
          </mxGeometry>
        </mxCell>
        <mxCell id="hjAu2-L6ZlnHu83Mgqnt-230" value="&lt;font style=&quot;font-size: 16px;&quot;&gt;256个SPI已经足够覆盖GPIO、UART、SPI、I2C等所有外设中断需求&lt;/font&gt;" style="shape=partialRectangle;html=1;whiteSpace=wrap;connectable=0;fillColor=none;top=0;left=0;bottom=0;right=0;align=left;spacingLeft=6;overflow=hidden;strokeColor=inherit;fontSize=14;" vertex="1" parent="hjAu2-L6ZlnHu83Mgqnt-228">
          <mxGeometry x="96" width="514" height="31" as="geometry">
            <mxRectangle width="514" height="31" as="alternateBounds" />
          </mxGeometry>
        </mxCell>
        <mxCell id="hjAu2-L6ZlnHu83Mgqnt-221" value="&lt;h1&gt;&lt;font style=&quot;font-size: 20px;&quot;&gt;RK3568，GIC中断号分配示例&lt;/font&gt;&lt;/h1&gt;" style="rounded=0;whiteSpace=wrap;html=1;fillColor=#f8cecc;strokeColor=#b85450;" vertex="1" parent="1">
          <mxGeometry x="1144" y="790.38" width="610" height="39" as="geometry" />
        </mxCell>
        <mxCell id="hjAu2-L6ZlnHu83Mgqnt-231" value="&lt;h2&gt;&lt;font style=&quot;font-size: 18px;&quot;&gt;5、中断状态机&lt;/font&gt;&lt;/h2&gt;" style="rounded=1;whiteSpace=wrap;html=1;fillColor=#e1d5e7;strokeColor=#9673a6;fontStyle=1" vertex="1" parent="1">
          <mxGeometry x="275.3299999999999" y="1195" width="147.33" height="40" as="geometry" />
        </mxCell>
        <mxCell id="hjAu2-L6ZlnHu83Mgqnt-232" value="&lt;span style=&quot;font-size: 16px;&quot;&gt;&lt;b&gt;Inactive（非活动状态）&lt;/b&gt;：中断源当前未被触发，处于待命状态&lt;/span&gt;" style="text;html=1;align=left;verticalAlign=middle;whiteSpace=wrap;rounded=0;fillColor=#e1d5e7;strokeColor=#9673a6;dashed=1;fontSize=14;" vertex="1" parent="1">
          <mxGeometry x="450.66" y="1120" width="619.34" height="40" as="geometry" />
        </mxCell>
        <mxCell id="hjAu2-L6ZlnHu83Mgqnt-234" value="" style="shape=curlyBracket;whiteSpace=wrap;html=1;rounded=1;labelPosition=left;verticalLabelPosition=middle;align=right;verticalAlign=middle;fillColor=#e1d5e7;strokeColor=#9673a6;strokeWidth=2;" vertex="1" parent="1">
          <mxGeometry x="421.66" y="1140" width="29" height="150" as="geometry" />
        </mxCell>
        <mxCell id="hjAu2-L6ZlnHu83Mgqnt-235" value="&lt;span style=&quot;font-size: 16px;&quot;&gt;&lt;b&gt;Pending（等待状态）&lt;/b&gt;：中断源已被触发，但尚未被处理器核心确认&lt;/span&gt;" style="text;html=1;align=left;verticalAlign=middle;whiteSpace=wrap;rounded=0;fillColor=#e1d5e7;strokeColor=#9673a6;dashed=1;fontSize=14;" vertex="1" parent="1">
          <mxGeometry x="451.66" y="1170" width="619.34" height="40" as="geometry" />
        </mxCell>
        <mxCell id="hjAu2-L6ZlnHu83Mgqnt-236" value="&lt;span style=&quot;font-size: 16px;&quot;&gt;&lt;b&gt;Active（活动状态）&lt;/b&gt;：中断源已被触发，并且已被处理器核心确认，正在处理中&lt;/span&gt;" style="text;html=1;align=left;verticalAlign=middle;whiteSpace=wrap;rounded=0;fillColor=#e1d5e7;strokeColor=#9673a6;dashed=1;fontSize=14;" vertex="1" parent="1">
          <mxGeometry x="451.66" y="1220" width="619.34" height="40" as="geometry" />
        </mxCell>
        <mxCell id="hjAu2-L6ZlnHu83Mgqnt-237" value="&lt;span style=&quot;font-size: 16px;&quot;&gt;&lt;b&gt;Active and Pending（活动且等待状态）&lt;/b&gt;：已确认一个中断实例，同时另一个中断实例正在等待处理&lt;/span&gt;" style="text;html=1;align=left;verticalAlign=middle;whiteSpace=wrap;rounded=0;fillColor=#e1d5e7;strokeColor=#9673a6;dashed=1;fontSize=14;" vertex="1" parent="1">
          <mxGeometry x="451.66" y="1270" width="619.34" height="40" as="geometry" />
        </mxCell>
      </root>
    </mxGraphModel>
  </diagram>
</mxfile>
